<?xml version="1.0" encoding="utf-8"?><!-- Uploaded to: SVG Repo, www.svgrepo.com, Generator: SVG Repo Mixer Tools -->
<svg version="1.1" id="designs" xmlns="http://www.w3.org/2000/svg" xmlns:xlink="http://www.w3.org/1999/xlink" 
	 width="800px" height="800px" viewBox="0 0 32 32" xml:space="preserve">
<style type="text/css">
	.sketchy_een{fill:#111918;}
</style>
<path class="sketchy_een" d="M25.296,14.745c-0.116-0.851-0.36-1.655-0.699-2.444c-0.11-0.255-0.267-0.491-0.421-0.722
	c-0.206-0.305-0.438-0.596-0.71-0.844c-0.284-0.259-0.632-0.413-0.994-0.524c-0.231-0.07-0.462-0.102-0.698-0.102
	c-0.085,0-0.171,0.004-0.258,0.012c-0.379,0.038-0.734,0.143-1.086,0.264c-0.072-0.078-0.134-0.164-0.217-0.234
	c-0.311-0.263-0.715-0.416-1.123-0.416c-0.047,0-0.094,0.002-0.142,0.006c-0.202,0.019-0.404,0.05-0.606,0.084
	c-0.304,0.051-0.593,0.164-0.875,0.292c-0.068-0.089-0.127-0.184-0.208-0.266c0.461-0.162,0.872-0.473,1.144-0.879
	c0.286-0.427,0.429-0.924,0.413-1.436c-0.006-0.215-0.063-0.432-0.122-0.638c-0.109-0.377-0.326-0.699-0.592-0.981
	c-0.158-0.17-0.37-0.312-0.57-0.425c-0.267-0.149-0.573-0.215-0.87-0.253c-0.143-0.019-0.286-0.029-0.429-0.029
	c-0.092,0-0.184,0.004-0.275,0.014c-0.24,0.024-0.475,0.06-0.708,0.11c-0.059-0.689-0.167-1.372-0.466-2.003
	c-0.143-0.299-0.318-0.577-0.55-0.815C13.915,2.193,13.451,2,12.996,2c-0.013,0-0.026,0-0.039,0
	c-0.667,0.013-1.339,0.261-1.813,0.737c-0.215,0.215-0.396,0.512-0.514,0.792c-0.099,0.234-0.175,0.467-0.24,0.712
	c-0.091,0.349-0.148,0.708-0.204,1.067c-0.042-0.007-0.08-0.02-0.122-0.026c-0.264-0.04-0.533-0.064-0.799-0.064
	c-0.487,0-0.969,0.079-1.42,0.285C7.625,5.603,7.425,5.728,7.243,5.888C7.069,6.041,6.934,6.218,6.795,6.401
	c-0.139,0.181-0.211,0.429-0.25,0.65C6.492,7.355,6.511,7.616,6.568,7.919C6.616,8.17,6.747,8.42,6.869,8.645
	c0.118,0.213,0.28,0.409,0.453,0.581C7.732,9.633,8.3,9.892,8.871,9.955c0.393,0.042,0.788-0.014,1.176-0.099
	c0.001,0.054,0,0.108,0.001,0.162c0.012,0.4,0.017,0.8,0.023,1.2c-0.155,0.03-0.306,0.089-0.428,0.204
	c-0.32,0.301-0.608,0.623-0.89,0.956c-0.345,0.408-0.707,0.804-0.947,1.284c-0.419,0.834-0.615,1.802-0.661,2.729
	c-0.023,0.467,0.011,0.922,0.084,1.385c0.065,0.425,0.141,0.828,0.299,1.23c0.133,0.331,0.267,0.651,0.484,0.937
	c0.109,0.143,0.221,0.278,0.339,0.41c0.179,0.202,0.4,0.366,0.617,0.526c0.331,0.246,0.72,0.413,1.086,0.6
	c0.32,0.162,0.637,0.333,0.929,0.538c0.21,0.176,0.405,0.366,0.583,0.574c0.091,0.129,0.17,0.263,0.251,0.397h-0.002
	c-0.012-0.001-0.023-0.001-0.035-0.001c-0.281,0-0.518,0.184-0.649,0.424c-0.116,0.04-0.226,0.097-0.315,0.185
	c-0.16,0.16-0.219,0.352-0.236,0.571c-0.057,0.781-0.065,1.562-0.072,2.343c-0.01,0.731-0.017,1.472,0.05,2.2
	c0.012,0.122,0.04,0.23,0.086,0.332c-0.01,0.049-0.03,0.095-0.03,0.146c0,0.44,0.37,0.815,0.813,0.812
	c1.665-0.011,3.328-0.059,4.992-0.044c0.829,0.008,1.655,0.021,2.484,0.021s1.657,0.015,2.486-0.01
	c0.32-0.01,0.638-0.023,0.958-0.025c0.279-0.002,0.56-0.012,0.838-0.042c0.152,0.04,0.305,0.039,0.457,0
	c0.074-0.011,0.149-0.021,0.221-0.036c0.371-0.071,0.632-0.469,0.632-0.827c0-0.229-0.091-0.448-0.253-0.608
	c-0.002-0.002-0.006-0.004-0.008-0.006c-0.025-0.626-0.031-1.253-0.069-1.88c-0.021-0.373-0.044-0.747-0.051-1.122
	c-0.008-0.377,0.004-0.756,0.006-1.135c0-0.247-0.129-0.461-0.315-0.604c-0.128-0.25-0.381-0.433-0.676-0.428
	c-0.121,0.002-0.242,0.002-0.362,0.005c0.073-0.113,0.14-0.229,0.219-0.339c0.155-0.185,0.319-0.353,0.504-0.51
	c0.123-0.089,0.248-0.176,0.373-0.262c0.16-0.109,0.324-0.223,0.461-0.358c0.147-0.145,0.272-0.303,0.396-0.469
	c0.217-0.282,0.328-0.632,0.43-0.968c0.059-0.191,0.11-0.383,0.156-0.577c0.097-0.408,0.133-0.848,0.158-1.269
	c0.023-0.402,0.027-0.804,0.017-1.206C25.464,16.444,25.411,15.597,25.296,14.745z M16.497,6.843c0.088,0.02,0.173,0.042,0.258,0.07
	c0.05,0.027,0.098,0.057,0.145,0.089c0.064,0.057,0.123,0.115,0.18,0.179c0.022,0.036,0.043,0.073,0.063,0.11
	c0.037,0.106,0.067,0.212,0.089,0.323c0.002,0.04,0.001,0.079-0.001,0.119c-0.013,0.065-0.029,0.128-0.049,0.192
	c-0.033,0.067-0.069,0.131-0.109,0.194C17.018,8.18,16.96,8.236,16.898,8.29c-0.024,0.016-0.048,0.03-0.073,0.044
	c-0.113,0.037-0.226,0.067-0.342,0.089c-0.149,0.01-0.294,0.013-0.443,0.003c-0.241-0.044-0.471-0.116-0.7-0.198
	c0-0.08-0.003-0.16-0.003-0.24c-0.002-0.328-0.004-0.657-0.009-0.985c0.182-0.055,0.361-0.117,0.55-0.15
	C16.086,6.834,16.29,6.827,16.497,6.843z M11.607,5.72c-0.001,0.01-0.002,0.02-0.004,0.03c0.074-0.545,0.152-1.11,0.343-1.626
	c0.059-0.122,0.129-0.237,0.207-0.348c0.018-0.02,0.037-0.04,0.056-0.059c0.09-0.06,0.183-0.111,0.28-0.158
	c0.104-0.034,0.208-0.059,0.315-0.079c0.084-0.005,0.166-0.005,0.25-0.002c0.005,0.001,0.011,0.003,0.016,0.005
	c0.042,0.022,0.082,0.046,0.121,0.072c0.038,0.035,0.072,0.07,0.106,0.109c0.083,0.121,0.151,0.247,0.217,0.38
	c0.064,0.159,0.124,0.321,0.163,0.487c0.045,0.193,0.078,0.385,0.107,0.58c0.026,0.261,0.042,0.523,0.055,0.786
	c-0.144,0.085-0.286,0.176-0.425,0.268c-0.165,0.109-0.33,0.218-0.494,0.328c-0.089-0.03-0.182-0.042-0.276-0.043
	c-0.16-0.138-0.335-0.266-0.51-0.378c-0.171-0.109-0.343-0.213-0.522-0.309c-0.003-0.002-0.007-0.002-0.01-0.004
	c0-0.003,0.001-0.005,0.001-0.008c0,0.003-0.001,0.005-0.001,0.008l0,0C11.603,5.746,11.605,5.733,11.607,5.72z M9.591,8.277
	c-0.19,0.021-0.379,0.032-0.569,0.02c-0.059-0.014-0.117-0.031-0.174-0.05c-0.09-0.045-0.176-0.094-0.26-0.149
	c-0.059-0.052-0.115-0.107-0.17-0.166C8.363,7.848,8.313,7.761,8.267,7.671C8.244,7.604,8.224,7.537,8.207,7.468
	c-0.001-0.032-0.001-0.064,0-0.096c0.006-0.024,0.012-0.047,0.018-0.071C8.234,7.285,8.243,7.27,8.253,7.254
	c0.05-0.057,0.102-0.11,0.158-0.161c0.08-0.051,0.161-0.096,0.246-0.138C8.779,6.913,8.9,6.881,9.027,6.857
	c0.313-0.026,0.62-0.012,0.93,0.022c0.028,0.005,0.054,0.016,0.081,0.021c-0.005,0.286-0.009,0.573-0.009,0.86
	c0,0.137,0.003,0.274,0.003,0.412C9.886,8.209,9.739,8.247,9.591,8.277z M20.995,28.398c-0.81,0.036-1.621,0.046-2.432,0.048
	c-0.825,0.004-1.65-0.019-2.474-0.023c-0.815-0.002-1.63-0.006-2.446-0.011c-0.512-0.003-1.024-0.014-1.535-0.024
	c-0.039-0.615-0.054-1.232-0.044-1.847c0.008-0.656,0.052-1.308,0.104-1.961c0.748,0.02,1.498,0.019,2.246,0.029
	c0.771,0.01,1.541,0.032,2.312,0.04c0.804,0.01,1.606,0.072,2.411,0.097c0.773,0.025,1.545,0.032,2.32,0.034
	c0.373,0.001,0.747,0.005,1.121,0.008c0.015,0.586,0.046,1.17,0.081,1.756c0.036,0.589,0.041,1.18,0.041,1.769
	C22.132,28.35,21.563,28.374,20.995,28.398z M23.813,18.98c-0.066,0.412-0.17,0.823-0.316,1.216
	c-0.049,0.093-0.102,0.179-0.16,0.264c-0.084,0.096-0.172,0.182-0.267,0.267c-0.391,0.287-0.783,0.56-1.116,0.919
	c-0.187,0.2-0.343,0.429-0.507,0.648c-0.133,0.175-0.257,0.356-0.371,0.545c-0.084,0.138-0.104,0.292-0.097,0.444
	c-0.822,0.002-1.644-0.01-2.463-0.057c-0.79-0.046-1.579-0.078-2.371-0.084c-0.817-0.006-1.63-0.036-2.446-0.069
	c-0.126-0.005-0.253-0.012-0.38-0.017c0.111-0.236,0.117-0.516-0.013-0.764c-0.4-0.764-0.95-1.408-1.684-1.874
	c-0.585-0.374-1.25-0.609-1.822-1.004c-0.162-0.14-0.309-0.294-0.445-0.459C9.259,18.809,9.182,18.659,9.11,18.5
	c-0.08-0.199-0.151-0.4-0.198-0.612c-0.052-0.233-0.093-0.469-0.13-0.706c-0.049-0.479-0.038-0.947,0.013-1.425
	c0.032-0.181,0.066-0.363,0.115-0.54c0.058-0.208,0.127-0.407,0.202-0.606c0.101-0.213,0.212-0.415,0.347-0.61
	c0.194-0.237,0.398-0.467,0.607-0.691c-0.001,0.109-0.003,0.219-0.003,0.328c-0.002,0.423,0.356,0.777,0.777,0.777
	c0.423,0,0.779-0.354,0.777-0.777c-0.006-1.343-0.055-2.684-0.09-4.027c-0.002-0.076,0-0.152-0.002-0.228
	c0.094-0.042,0.19-0.077,0.282-0.126c0.322-0.173,0.599-0.399,0.872-0.635c0.209,0.193,0.426,0.377,0.675,0.526
	c0.166,0.1,0.34,0.183,0.514,0.266c0.005,0.392,0.011,0.784,0.011,1.177c0,0.295,0.011,0.591,0.017,0.886
	c0.004,0.309-0.004,0.619,0.027,0.926c0.019,0.208,0.069,0.383,0.221,0.535c0.141,0.141,0.335,0.221,0.533,0.221
	c0.2,0,0.394-0.08,0.535-0.221c0.093-0.095,0.158-0.206,0.194-0.333c0.033-0.123,0.036-0.248,0.008-0.371
	c-0.029-0.331-0.024-0.667-0.032-1.001c-0.002-0.092-0.004-0.185-0.006-0.277c0.052-0.009,0.104-0.018,0.156-0.026
	c0.149-0.015,0.294-0.02,0.443-0.01c0.054,0.011,0.106,0.023,0.159,0.039c0.041,0.037,0.078,0.076,0.115,0.117
	c0.085,0.13,0.157,0.264,0.224,0.404c0.122,0.347,0.212,0.699,0.275,1.061c0.034,0.19,0.198,0.373,0.36,0.467
	c0.179,0.105,0.4,0.133,0.6,0.078c0.196-0.053,0.366-0.183,0.467-0.358c0.112-0.192,0.118-0.389,0.08-0.602
	c-0.032-0.173-0.071-0.345-0.113-0.516c0.078-0.039,0.155-0.08,0.234-0.116c0.142-0.048,0.283-0.079,0.43-0.104
	c0.098-0.01,0.194-0.014,0.292-0.011c0.017,0.004,0.033,0.009,0.05,0.014c0.002,0.001,0.003,0.002,0.005,0.003
	c0.069,0.061,0.133,0.125,0.195,0.195c0.169,0.247,0.306,0.51,0.427,0.785c0.048,0.121,0.094,0.244,0.142,0.366
	c0.078,0.202,0.175,0.366,0.37,0.478c0.185,0.109,0.409,0.139,0.617,0.082c0.202-0.055,0.375-0.188,0.48-0.37
	c0.099-0.168,0.156-0.429,0.082-0.617c-0.067-0.167-0.134-0.337-0.203-0.507c0.121-0.036,0.24-0.078,0.365-0.101
	c0.077-0.007,0.153-0.011,0.23-0.01c0.125,0.026,0.246,0.061,0.366,0.103c0.061,0.032,0.118,0.066,0.174,0.103
	c0.123,0.114,0.233,0.234,0.34,0.361c0.221,0.299,0.412,0.606,0.569,0.944c0.104,0.27,0.199,0.542,0.269,0.823
	c0.077,0.302,0.129,0.607,0.174,0.913c0.086,0.695,0.12,1.388,0.131,2.089C23.89,17.683,23.885,18.332,23.813,18.98z"/>
</svg>